<svg id="Layer_1" data-name="Layer 1" xmlns="http://www.w3.org/2000/svg" width="934" height="345" viewBox="0 0 934 345">
  <defs>
    <style>
      .cls-1 {
        fill: #ff2d20;
      }
    </style>
  </defs>
  <title>laravelayers-logo2</title>
  <g>
    <g>
      <path d="M146.37,126.08,105.28,149.8v45l41.09,23.72,41.1-23.72v-45Z"/>
      <path d="M146.37,125.41l-41.69,24.06v45.61l41.69,24.07,41.69-24.07V149.47Zm-3,85.15-32.76-18.92V156.35l32.76,18.91Zm-29.78-59.37,32.75-18.91,32.76,18.91-32.76,18.92Zm68.49,40.45-32.76,18.9V175.26l32.76-18.92Z"/>
    </g>
    <g>
      <path class="cls-1" d="M187.37,149.77l-41.1,23.73v45l41.1,23.72,41.09-23.72v-45Z"/>
      <path class="cls-1" d="M187.37,149.11l-41.69,24.06v45.61l41.69,24.07,41.69-24.07V173.17Zm-3,85.14-32.75-18.92V180.05L184.39,199Zm-29.78-59.36L187.37,156l32.76,18.91-32.76,18.92Zm68.49,40.44-32.75,18.91V199L223.1,180Z"/>
    </g>
    <g>
      <path class="cls-1" d="M107.81,148.3,66.72,172v45l41.09,23.72L148.91,217V172Z"/>
      <path class="cls-1" d="M107.81,147.63,66.12,171.7v45.61l41.69,24.06,41.69-24.06V171.7Zm-3,85.15L72.08,213.86V178.57l32.75,18.91ZM75.05,173.42l32.76-18.92,32.76,18.92-32.76,18.91Zm68.5,40.44-32.76,18.91V197.48l32.76-18.91Z"/>
    </g>
    <g>
      <path class="cls-1" d="M148.91,172l-41.1,23.72v45l41.1,23.72L190,240.65v-45Z"/>
      <path class="cls-1" d="M148.91,171.3l-41.69,24.07V241L148.91,265,190.6,241V195.37Zm-3,85.15-32.76-18.92V202.24l32.76,18.91Zm-29.78-59.36,32.76-18.92,32.75,18.92L148.91,216Zm68.49,40.44-32.76,18.91V221.15l32.76-18.91Z"/>
    </g>
    <g>
      <g>
        <path d="M146.37,80.63l-41.09,23.72v45L146.37,173l41.1-23.72v-45Z"/>
        <path d="M146.37,80,104.68,104v45.61l41.69,24.07,41.69-24.07V104Zm-3,85.15-32.76-18.93V110.9l32.76,18.91Zm-29.78-59.37,32.75-18.91,32.76,18.91-32.76,18.92Zm68.49,40.44-32.76,18.91V129.81l32.76-18.92Z"/>
      </g>
      <g>
        <path d="M187.37,104.32l-41.1,23.73v45l41.1,23.72L228.46,173v-45Z"/>
        <path d="M187.37,103.66l-41.69,24.06v45.61l41.69,24.07,41.69-24.07V127.72Zm-3,85.14-32.75-18.92V134.6l32.75,18.9Zm-29.78-59.36,32.76-18.91,32.76,18.91-32.76,18.92Zm68.49,40.44-32.75,18.91V153.5l32.75-18.91Z"/>
      </g>
      <g>
        <path class="cls-1" d="M107.81,102.85,66.72,126.57v45l41.09,23.72,41.1-23.72v-45Z"/>
        <path class="cls-1" d="M107.81,102.18,66.12,126.25v45.61l41.69,24.06,41.69-24.06V126.25Zm-3,85.15L72.08,168.41V133.12L104.83,152ZM75.05,128l32.76-18.92L140.57,128l-32.76,18.91Zm68.5,40.44-32.76,18.91V152l32.76-18.91Z"/>
      </g>
      <g>
        <path d="M148.91,126.52l-41.1,23.72v45l41.1,23.72L190,195.2v-45Z"/>
        <path d="M148.91,125.85l-41.69,24.07v45.61l41.69,24.06,41.69-24.06V149.92Zm-3,85.15-32.76-18.92V156.79l32.76,18.91Zm-29.78-59.37,32.76-18.91,32.75,18.91-32.75,18.92Zm68.49,40.45L151.88,211V175.7l32.76-18.91Z"/>
      </g>
    </g>
  </g>
  <g>
    <path class="cls-1" d="M293.54,196.87h29.58v14H276.68V127.39h16.86Z"/>
    <path class="cls-1" d="M361.53,210.86a22.49,22.49,0,0,1-1.38-4.82,13.85,13.85,0,0,1-11.81,6,17.47,17.47,0,0,1-12.92-5.16q-5.15-5.16-5.14-13.36,0-9.75,6.22-15.08T354.42,173h4.93v-5q0-4.18-1.43-5.91a5.17,5.17,0,0,0-4.19-1.72q-6.08,0-6.07,7.11H331.43a18,18,0,0,1,6.45-14.19q6.45-5.58,16.31-5.59,10.2,0,15.8,5.31t5.59,15.16v29.18q.1,8,2.29,12.56v1ZM352,199.28a9,9,0,0,0,4.58-1.09,7.78,7.78,0,0,0,2.81-2.58v-12.9h-3.9a8.33,8.33,0,0,0-6.51,2.64,10.16,10.16,0,0,0-2.37,7.05Q346.57,199.29,352,199.28Z"/>
    <path class="cls-1" d="M417.94,164.48l-5.39-.46q-6.65,0-9,5.85v41H387.27v-62h15.31l.46,6.71q3.84-7.86,10.6-7.86a11.25,11.25,0,0,1,4.47.75Z"/>
    <path class="cls-1" d="M454,210.86a22,22,0,0,1-1.37-4.82,13.87,13.87,0,0,1-11.81,6,17.48,17.48,0,0,1-12.93-5.16q-5.13-5.16-5.13-13.36,0-9.75,6.22-15.08T446.89,173h4.93v-5c0-2.79-.47-4.76-1.43-5.91a5.15,5.15,0,0,0-4.18-1.72q-6.09,0-6.08,7.11H423.9a18,18,0,0,1,6.45-14.19q6.45-5.58,16.31-5.59,10.21,0,15.8,5.31t5.59,15.16v29.18q.1,8,2.29,12.56v1Zm-9.57-11.58a9,9,0,0,0,4.58-1.09,7.7,7.7,0,0,0,2.81-2.58v-12.9h-3.89a8.3,8.3,0,0,0-6.51,2.64A10.12,10.12,0,0,0,439,192.4Q439,199.29,444.43,199.28Z"/>
    <path class="cls-1" d="M499.29,187.93l7.86-39.1h16.91l-17,62H491.55l-17.08-62h17Z"/>
    <path class="cls-1" d="M556,212q-12.5,0-19.49-7.46t-7-21.32V178.3q0-14.69,6.42-22.65t18.4-8q11.7,0,17.6,7.47t6,22.13v7.95H545.67q.35,7,3,10.2t8.32,3.22A18,18,0,0,0,570.61,193l6.37,9.81a21,21,0,0,1-8.66,6.68A29.71,29.71,0,0,1,556,212Zm-10.2-38.07H562v-1.5c-.07-3.75-.68-6.58-1.83-8.51s-3.14-2.89-6-2.89-4.89,1-6.17,3.07S546,169.43,545.79,173.94Z"/>
    <path d="M604.15,210.86H587.87V122.8h16.28Z"/>
    <path d="M646.17,210.86A23.23,23.23,0,0,1,644.8,206,13.87,13.87,0,0,1,633,212a17.48,17.48,0,0,1-12.93-5.16q-5.13-5.16-5.13-13.36,0-9.75,6.22-15.08T639.07,173H644v-5q0-4.18-1.44-5.91a5.15,5.15,0,0,0-4.18-1.72q-6.07,0-6.08,7.11H616.08a18,18,0,0,1,6.45-14.19q6.45-5.58,16.31-5.59,10.2,0,15.79,5.31t5.59,15.16v29.18q.12,8,2.29,12.56v1Zm-9.57-11.58a9,9,0,0,0,4.59-1.09,7.86,7.86,0,0,0,2.81-2.58v-12.9h-3.9a8.33,8.33,0,0,0-6.51,2.64,10.12,10.12,0,0,0-2.38,7.05Q631.21,199.29,636.6,199.28Z"/>
    <path d="M691,183.86l8.25-35h17.32l-20.41,71.32q-4.59,15.76-17.26,15.76a23.85,23.85,0,0,1-6.65-1.09V222.15l1.89.06a9.39,9.39,0,0,0,5.71-1.46,9.15,9.15,0,0,0,2.89-5.07l1.26-4.19-17.89-62.66h17.43Z"/>
    <path d="M747.82,212q-12.5,0-19.49-7.46t-7-21.32V178.3q0-14.69,6.42-22.65t18.41-8q11.7,0,17.6,7.47t6,22.13v7.95H737.5q.35,7,3,10.2t8.31,3.22A18,18,0,0,0,762.44,193l6.36,9.81a20.92,20.92,0,0,1-8.65,6.68A29.78,29.78,0,0,1,747.82,212Zm-10.2-38.07h16.22v-1.5c-.08-3.75-.69-6.58-1.83-8.51s-3.14-2.89-6-2.89-4.88,1-6.16,3.07S737.84,169.43,737.62,173.94Z"/>
    <path d="M809.57,164.48l-5.39-.46q-6.66,0-9,5.85v41H778.89v-62H794.2l.46,6.71q3.84-7.86,10.61-7.86a11.32,11.32,0,0,1,4.47.75Z"/>
    <path d="M845.34,194.23a5.08,5.08,0,0,0-2-3.81q-2-1.74-8.8-4.73-10-4.06-13.79-8.43A16,16,0,0,1,817,166.43,17.3,17.3,0,0,1,822.9,153q5.86-5.31,15.56-5.31,10.2,0,16.34,5.28t6.13,14.16H844.71q0-7.58-6.31-7.57a5.63,5.63,0,0,0-5.9,6.08,4.71,4.71,0,0,0,1.83,3.64q1.84,1.57,8.66,4.5,9.91,3.66,14,8.17t4.1,11.66A16.32,16.32,0,0,1,854.86,207q-6.25,5.06-16.4,5a26.07,26.07,0,0,1-12-2.67,20.24,20.24,0,0,1-8.17-7.42,19.11,19.11,0,0,1-3-10.27h15.42q.12,4.24,2,6.37c1.24,1.41,3.28,2.12,6.1,2.12Q845.34,200.14,845.34,194.23Z"/>
  </g>
</svg>
