<svg id="Layer_2" data-name="Layer 2" xmlns="http://www.w3.org/2000/svg" width="111.91" height="21.66" viewBox="0 0 111.91 21.66">
  <defs>
    <style>
      .cls-1 {
        fill: #ff2d20;
      }
    </style>
  </defs>
  <title>logotype.min</title>
  <g>
    <path class="cls-1" d="M4.51,18h5.67v2.68H1.28v-16H4.51Z" transform="translate(-1.28 -3.77)"/>
    <path class="cls-1" d="M17.53,20.63a4.34,4.34,0,0,1-.26-.92A2.66,2.66,0,0,1,15,20.85a3.35,3.35,0,0,1-2.48-1,3.47,3.47,0,0,1-1-2.55,3.6,3.6,0,0,1,1.19-2.89,5.18,5.18,0,0,1,3.43-1h.95v-1a1.81,1.81,0,0,0-.28-1.13A1,1,0,0,0,16,11c-.78,0-1.16.45-1.16,1.36H11.77A3.46,3.46,0,0,1,13,9.6a4.64,4.64,0,0,1,3.13-1.07,4.2,4.2,0,0,1,3,1,3.8,3.8,0,0,1,1.07,2.9V18a5.92,5.92,0,0,0,.44,2.41v.18ZM15.7,18.42a1.74,1.74,0,0,0,.88-.21,1.54,1.54,0,0,0,.54-.5V15.24h-.75a1.6,1.6,0,0,0-1.25.51,1.93,1.93,0,0,0-.45,1.35C14.67,18,15,18.42,15.7,18.42Z" transform="translate(-1.28 -3.77)"/>
    <path class="cls-1" d="M28.33,11.75l-1-.09a1.7,1.7,0,0,0-1.72,1.12v7.85H22.46V8.75h2.93L25.48,10a2.26,2.26,0,0,1,2-1.51,2.11,2.11,0,0,1,.86.15Z" transform="translate(-1.28 -3.77)"/>
    <path class="cls-1" d="M35.24,20.63a3.8,3.8,0,0,1-.26-.92,2.66,2.66,0,0,1-2.26,1.14,3.34,3.34,0,0,1-2.48-1,3.43,3.43,0,0,1-1-2.55,3.57,3.57,0,0,1,1.19-2.89,5.18,5.18,0,0,1,3.43-1h.94v-1a1.82,1.82,0,0,0-.27-1.13,1,1,0,0,0-.8-.33c-.78,0-1.17.45-1.17,1.36h-3.1A3.46,3.46,0,0,1,30.71,9.6a4.64,4.64,0,0,1,3.13-1.07,4.2,4.2,0,0,1,3,1,3.83,3.83,0,0,1,1.07,2.9V18a5.76,5.76,0,0,0,.44,2.41v.18Zm-1.83-2.21a1.76,1.76,0,0,0,.88-.21,1.43,1.43,0,0,0,.53-.5V15.24h-.74a1.58,1.58,0,0,0-1.25.51,1.93,1.93,0,0,0-.45,1.35C32.38,18,32.72,18.42,33.41,18.42Z" transform="translate(-1.28 -3.77)"/>
    <path class="cls-1" d="M43.91,16.24l1.51-7.49h3.24L45.4,20.63h-3L39.16,8.75h3.25Z" transform="translate(-1.28 -3.77)"/>
    <path class="cls-1" d="M54.77,20.85A4.84,4.84,0,0,1,51,19.42a5.75,5.75,0,0,1-1.34-4.08V14.4a6.76,6.76,0,0,1,1.23-4.34,4.25,4.25,0,0,1,3.52-1.53A4,4,0,0,1,57.82,10,6.79,6.79,0,0,1,59,14.2v1.53H52.79a3.27,3.27,0,0,0,.59,1.95,2,2,0,0,0,1.59.61,3.46,3.46,0,0,0,2.6-1.08l1.22,1.87a3.91,3.91,0,0,1-1.66,1.28A5.6,5.6,0,0,1,54.77,20.85Zm-2-7.29h3.1v-.29a3.3,3.3,0,0,0-.35-1.62,1.22,1.22,0,0,0-1.14-.56,1.3,1.3,0,0,0-1.18.59A4.09,4.09,0,0,0,52.82,13.56Z" transform="translate(-1.28 -3.77)"/>
    <path d="M64,20.63H60.88V3.77H64Z" transform="translate(-1.28 -3.77)"/>
    <path d="M72,20.63a3.8,3.8,0,0,1-.26-.92,2.66,2.66,0,0,1-2.26,1.14,3.34,3.34,0,0,1-2.48-1,3.43,3.43,0,0,1-1-2.55,3.57,3.57,0,0,1,1.19-2.89,5.18,5.18,0,0,1,3.43-1h.94v-1a1.82,1.82,0,0,0-.27-1.13,1,1,0,0,0-.8-.33c-.78,0-1.17.45-1.17,1.36h-3.1A3.46,3.46,0,0,1,67.51,9.6a4.62,4.62,0,0,1,3.12-1.07,4.21,4.21,0,0,1,3,1,3.83,3.83,0,0,1,1.07,2.9V18a5.76,5.76,0,0,0,.44,2.41v.18Zm-1.83-2.21a1.7,1.7,0,0,0,.87-.21,1.39,1.39,0,0,0,.54-.5V15.24h-.74a1.58,1.58,0,0,0-1.25.51,1.94,1.94,0,0,0-.46,1.35C69.17,18,69.52,18.42,70.21,18.42Z" transform="translate(-1.28 -3.77)"/>
    <path d="M80.63,15.46l1.58-6.71h3.31L81.61,22.41q-.87,3-3.3,3A4.53,4.53,0,0,1,77,25.22V22.8h.36a1.82,1.82,0,0,0,1.09-.28,1.71,1.71,0,0,0,.55-1l.25-.8-3.43-12H79.2Z" transform="translate(-1.28 -3.77)"/>
    <path d="M91.51,20.85a4.86,4.86,0,0,1-3.74-1.43,5.75,5.75,0,0,1-1.34-4.08V14.4a6.76,6.76,0,0,1,1.23-4.34,4.27,4.27,0,0,1,3.53-1.53A4,4,0,0,1,94.56,10a6.79,6.79,0,0,1,1.15,4.23v1.53H89.53a3.27,3.27,0,0,0,.58,1.95,2,2,0,0,0,1.59.61,3.46,3.46,0,0,0,2.6-1.08l1.22,1.87a3.94,3.94,0,0,1-1.65,1.28A5.67,5.67,0,0,1,91.51,20.85Zm-2-7.29h3.11v-.29a3.42,3.42,0,0,0-.35-1.62,1.22,1.22,0,0,0-1.14-.56,1.28,1.28,0,0,0-1.18.59A4.07,4.07,0,0,0,89.55,13.56Z" transform="translate(-1.28 -3.77)"/>
    <path d="M103.33,11.75l-1-.09a1.71,1.71,0,0,0-1.73,1.12v7.85H97.46V8.75h2.93l.08,1.29a2.27,2.27,0,0,1,2-1.51,2.06,2.06,0,0,1,.85.15Z" transform="translate(-1.28 -3.77)"/>
    <path d="M110.18,17.45a1,1,0,0,0-.38-.73,7.43,7.43,0,0,0-1.68-.91,6.82,6.82,0,0,1-2.64-1.61,3.08,3.08,0,0,1-.72-2.08,3.32,3.32,0,0,1,1.12-2.57,4.26,4.26,0,0,1,3-1,4.64,4.64,0,0,1,3.13,1,3.43,3.43,0,0,1,1.18,2.72h-3.11c0-1-.4-1.45-1.21-1.45a1.13,1.13,0,0,0-.81.3,1.15,1.15,0,0,0-.32.86.92.92,0,0,0,.35.7,7.87,7.87,0,0,0,1.66.86,6.86,6.86,0,0,1,2.68,1.56,3.18,3.18,0,0,1,.79,2.24,3.13,3.13,0,0,1-1.2,2.56,4.86,4.86,0,0,1-3.14,1,5,5,0,0,1-2.3-.51A3.86,3.86,0,0,1,105,18.92a3.71,3.71,0,0,1-.56-2h2.95a1.82,1.82,0,0,0,.38,1.21,1.5,1.5,0,0,0,1.17.41C109.76,18.58,110.18,18.2,110.18,17.45Z" transform="translate(-1.28 -3.77)"/>
  </g>
</svg>
