<svg id="Layer_1" data-name="Layer 1" xmlns="http://www.w3.org/2000/svg" width="44.64" height="50.71" viewBox="0 0 44.64 50.71">
  <defs>
    <style>
      .cls-1 {
        fill: #ff2d20;
      }
    </style>
  </defs>
  <title>logomark.min</title>
  <g>
    <g>
      <path d="M24.67,13.21l-11.26,6.5V32l11.26,6.5L35.93,32V19.71Z" transform="translate(-2.68 -0.57)"/>
      <path d="M24.67,13l-11.43,6.6V32.11l11.43,6.6,11.42-6.6V19.62Zm-.82,23.33-9-5.18V21.5l9,5.18ZM15.69,20.09l9-5.18,9,5.18-9,5.18ZM34.46,31.17l-9,5.18V26.68l9-5.18Z" transform="translate(-2.68 -0.57)"/>
    </g>
    <g>
      <path class="cls-1" d="M35.9,19.7,24.64,26.2V38.52L35.9,45l11.26-6.49V26.2Z" transform="translate(-2.68 -0.57)"/>
      <path class="cls-1" d="M35.9,19.52,24.48,26.11V38.6L35.9,45.2l11.42-6.6V26.11Zm-.82,23.32-9-5.18V28l9,5.18ZM26.92,26.58l9-5.18,9,5.18-9,5.18ZM45.69,37.66l-9,5.18V33.17l9-5.18Z" transform="translate(-2.68 -0.57)"/>
    </g>
    <g>
      <path class="cls-1" d="M14.1,19.29,2.84,25.79V38.11l11.26,6.5,11.26-6.5V25.79Z" transform="translate(-2.68 -0.57)"/>
      <path class="cls-1" d="M14.1,19.11,2.68,25.71V38.2L14.1,44.79,25.52,38.2V25.71Zm-.81,23.33-9-5.18V27.59l9,5.18ZM5.13,26.18l9-5.19,9,5.19-9,5.18ZM23.89,37.26l-9,5.18V32.77l9-5.18Z" transform="translate(-2.68 -0.57)"/>
    </g>
    <g>
      <path class="cls-1" d="M25.36,25.78,14.1,32.28V44.6l11.26,6.5,11.26-6.5V32.28Z" transform="translate(-2.68 -0.57)"/>
      <path class="cls-1" d="M25.36,25.6,13.94,32.19V44.68l11.42,6.6,11.42-6.6V32.19Zm-.82,23.32-9-5.18V34.07l9,5.18ZM16.39,32.66l9-5.18,9,5.18-9,5.18ZM35.15,43.74l-9,5.18V39.25l9-5.18Z" transform="translate(-2.68 -0.57)"/>
    </g>
    <g>
      <g>
        <path d="M24.67.75,13.41,7.25V19.57l11.26,6.5,11.26-6.5V7.25Z" transform="translate(-2.68 -0.57)"/>
        <path d="M24.67.57,13.24,7.16v12.5l11.43,6.59,11.42-6.59V7.16ZM23.85,23.9l-9-5.18V9.05l9,5.18ZM15.69,7.64l9-5.19,9,5.19-9,5.18ZM34.46,18.72l-9,5.18V14.23l9-5.18Z" transform="translate(-2.68 -0.57)"/>
      </g>
      <g>
        <path d="M35.9,7.25l-11.26,6.5V26.06l11.26,6.5,11.26-6.5V13.75Z" transform="translate(-2.68 -0.57)"/>
        <path d="M35.9,7.06l-11.42,6.6V26.15l11.42,6.6,11.42-6.6V13.66Zm-.82,23.33-9-5.18V15.54l9,5.18ZM26.92,14.13,35.9,9l9,5.18-9,5.18ZM45.69,25.21l-9,5.18V20.72l9-5.18Z" transform="translate(-2.68 -0.57)"/>
      </g>
      <g>
        <path class="cls-1" d="M14.1,6.84,2.84,13.34V25.66l11.26,6.5,11.26-6.5V13.34Z" transform="translate(-2.68 -0.57)"/>
        <path class="cls-1" d="M14.1,6.66,2.68,13.25v12.5L14.1,32.34l11.42-6.59V13.25ZM13.29,30l-9-5.19V15.14l9,5.18ZM5.13,13.72l9-5.18,9,5.18-9,5.19ZM23.89,24.8l-9,5.18V20.32l9-5.18Z" transform="translate(-2.68 -0.57)"/>
      </g>
      <g>
        <path d="M25.36,13.33,14.1,19.83V32.14l11.26,6.5,11.26-6.5V19.83Z" transform="translate(-2.68 -0.57)"/>
        <path d="M25.36,13.14l-11.42,6.6V32.23l11.42,6.6,11.42-6.6V19.74Zm-.82,23.33-9-5.18V21.62l9,5.18ZM16.39,20.21l9-5.18,9,5.18-9,5.18ZM35.15,31.29l-9,5.18V26.8l9-5.18Z" transform="translate(-2.68 -0.57)"/>
      </g>
    </g>
  </g>
</svg>
