<svg xmlns="http://www.w3.org/2000/svg" xmlns:xlink="http://www.w3.org/1999/xlink" xmlns:lucid="lucid" width="1320" height="651.9"><g transform="translate(-220 0.8957213550003402)" lucid:page-tab-id="HWEp-vi-RSFO"><path d="M453.15 19.1h852.75v42.95H453.15z" stroke="#000" stroke-opacity="0" stroke-width="2" fill="#fff" fill-opacity="0"/><use xlink:href="#a" transform="matrix(1,0,0,1,457.1465527853429,23.10427864499966) translate(141.043950617284 24.084444444444443)"/><use xlink:href="#b" transform="matrix(1,0,0,1,457.1465527853429,23.10427864499966) translate(204.41432098765438 24.084444444444443)"/><use xlink:href="#c" transform="matrix(1,0,0,1,457.1465527853429,23.10427864499966) translate(313.52790123456793 24.084444444444443)"/><use xlink:href="#d" transform="matrix(1,0,0,1,457.1465527853429,23.10427864499966) translate(345.4316049382717 24.084444444444443)"/><use xlink:href="#e" transform="matrix(1,0,0,1,457.1465527853429,23.10427864499966) translate(391.90320987654326 24.084444444444443)"/><use xlink:href="#f" transform="matrix(1,0,0,1,457.1465527853429,23.10427864499966) translate(519.8822222222223 24.084444444444443)"/><use xlink:href="#g" transform="matrix(1,0,0,1,457.1465527853429,23.10427864499966) translate(550.401975308642 24.084444444444443)"/><path d="M240 120h180v40H240z" stroke="#494949" stroke-width="2" fill="#fff"/><use xlink:href="#h" transform="matrix(1,0,0,1,248,128) translate(43.12499999999999 15.6)"/><path d="M460 120h180v40H460z" stroke="#494949" stroke-width="2" fill="#fff"/><use xlink:href="#i" transform="matrix(1,0,0,1,468,128) translate(52.05 15.6)"/><path d="M1119 120h180v40h-180z" stroke="#494949" stroke-width="2" fill="#fff"/><use xlink:href="#j" transform="matrix(1,0,0,1,1127,128.00000000000006) translate(39.074999999999996 15.6)"/><path d="M683 120h180v40H683z" stroke="#494949" stroke-width="2" fill="#fff"/><use xlink:href="#k" transform="matrix(1,0,0,1,691,128) translate(68.025 15.6)"/><path d="M899 120h180v40H899z" stroke="#494949" stroke-width="2" fill="#fff"/><use xlink:href="#l" transform="matrix(1,0,0,1,907,128) translate(42.574999999999996 15.6)"/><path d="M1340 120h180v40h-180z" stroke="#494949" stroke-width="2" fill="#fff"/><use xlink:href="#m" transform="matrix(1,0,0,1,1348,128) translate(57.55 15.6)"/><path d="M330 162v477" stroke="#494949" stroke-width="2" fill="none"/><path d="M331 162.03h-2V161h2z" fill="#494949"/><path d="M330 638.97V640M550 162v477" stroke="#494949" stroke-width="2" fill="none"/><path d="M551 162.03h-2V161h2z" fill="#494949"/><path d="M550 638.97V640M773 162v477" stroke="#494949" stroke-width="2" fill="none"/><path d="M774 162.03h-2V161h2z" fill="#494949"/><path d="M773 638.97V640M989 162v477" stroke="#494949" stroke-width="2" fill="none"/><path d="M990 162.03h-2V161h2z" fill="#494949"/><path d="M989 638.97V640M1209 162v477" stroke="#494949" stroke-width="2" fill="none"/><path d="M1210 162.03h-2V161h2z" fill="#494949"/><path d="M1209 638.97V640" stroke="#494949" stroke-width="2" fill="none"/><path d="M1430 161.5v4.98m0 4.98v9.96m0 4.98v9.95m0 4.98v9.96m0 4.97v9.96m0 4.98v9.97m0 4.98v9.95m0 4.98v9.96m0 4.98v9.96m0 4.98v9.96m0 4.98v9.95m0 4.98v9.96m0 4.97v9.96m0 4.98v9.97m0 4.98v9.95m0 4.98v9.96m0 4.98v9.96m0 4.98v9.96m0 4.98v9.95m0 4.98v9.96m0 4.97v9.96m0 4.98v9.97m0 4.98v9.95m0 4.98v9.96m0 4.98v9.96m0 4.98v9.96m0 4.98v9.95m0 4.98v9.96m0 4.97v9.96m0 4.98v9.97m0 4.98v9.95m0 4.98v9.96m0 4.98v4.98" stroke="#333" fill="none"/><path d="M1430.5 161.5h-1v-.5h1z" fill="#333"/><path d="M1430 639.5v.5" stroke="#333" fill="none"/><path d="M540 240h20v320h-20zM1199 280h20v240h-20zM1419 320h19.67v40H1419zM979 400h20v120h-20zM763 440h20v40h-20zM320 200h20v400h-20z" stroke="#494949" stroke-width="2" fill="#fff"/><path d="M342 239h178.5" stroke="#494949" stroke-width="2" fill="none"/><path d="M342.03 240H341v-2h1.03z" fill="#494949"/><path d="M535.77 239l-14.26 4.64v-9.28z" stroke="#494949" stroke-width="2" fill="#494949"/><path d="M562 281.33h617.5" stroke="#494949" stroke-width="2" fill="none"/><path d="M562.03 282.33H561v-2h1.03z" fill="#494949"/><path d="M1194.76 281.33l-14.26 4.64v-9.27z" stroke="#494949" stroke-width="2" fill="#494949"/><path d="M1221 321.33h178.5" stroke="#494949" stroke-width="2" fill="none"/><path d="M1221.03 322.33H1220v-2h1.03z" fill="#494949"/><path d="M1414.76 321.33l-14.26 4.64v-9.27z" stroke="#494949" stroke-width="2" fill="#494949"/><path d="M1417 358.67h-178.5" stroke="#494949" stroke-width="2" fill="none"/><path d="M1418 359.67h-1.03v-2h1.03z" fill="#494949"/><path d="M1223.24 358.67l14.26-4.64v9.27z" stroke="#494949" stroke-width="2" fill="#494949"/><path d="M1197 400h-178.5" stroke="#494949" stroke-width="2" fill="none"/><path d="M1198 401h-1.03v-2h1.03z" fill="#494949"/><path d="M1003.24 400l14.26-4.64v9.28z" stroke="#494949" stroke-width="2" fill="#494949"/><path d="M977 439H802.5" stroke="#494949" stroke-width="2" fill="none"/><path d="M978 440h-1.03v-2H978z" fill="#494949"/><path d="M787.24 439l14.26-4.64v9.28z" stroke="#494949" stroke-width="2" fill="#494949"/><path d="M785 480h174.5" stroke="#494949" stroke-width="2" fill="none"/><path d="M784 479h1.03v2H784z" fill="#494949"/><path d="M974.76 480l-14.26 4.64v-9.28z" stroke="#494949" stroke-width="2" fill="#494949"/><path d="M538 560H359.5" stroke="#494949" stroke-width="2" fill="none"/><path d="M539 561h-1.03v-2H539z" fill="#494949"/><path d="M344.24 560l14.26-4.64v9.28z" stroke="#494949" stroke-width="2" fill="#494949"/><path d="M977 520H579.5" stroke="#494949" stroke-width="2" fill="none"/><path d="M978 521h-1.03v-2H978z" fill="#494949"/><path d="M564.24 520l14.26-4.64v9.28z" stroke="#494949" stroke-width="2" fill="#494949"/><defs><path fill="#b2b2b2" d="M238-95c0 69-44 99-111 99C63 4 22-25 22-93v-155h51v151c-1 38 19 59 55 60 90 1 49-130 58-211h52v153" id="n"/><path fill="#b2b2b2" d="M230 0l2-204L168 0h-37L68-204 70 0H24v-248h70l56 185 57-185h69V0h-46" id="o"/><path fill="#b2b2b2" d="M24 0v-248h52v208h133V0H24" id="p"/><g id="a"><use transform="matrix(0.0728395061728395,0,0,0.0728395061728395,0,0)" xlink:href="#n"/><use transform="matrix(0.0728395061728395,0,0,0.0728395061728395,18.86543209876543,0)" xlink:href="#o"/><use transform="matrix(0.0728395061728395,0,0,0.0728395061728395,40.644444444444446,0)" xlink:href="#p"/></g><path fill="#b2b2b2" d="M88-194c31-1 46 15 58 34l-1-101h50l1 261h-48c-2-10 0-23-3-31C134-8 116 4 84 4 32 4 16-41 15-95c0-56 19-97 73-99zm17 164c33 0 40-30 41-66 1-37-9-64-41-64s-38 30-39 65c0 43 13 65 39 65" id="q"/><path fill="#b2b2b2" d="M25-224v-37h50v37H25zM25 0v-190h50V0H25" id="r"/><path fill="#b2b2b2" d="M133-34C117-15 103 5 69 4 32 3 11-16 11-54c-1-60 55-63 116-61 1-26-3-47-28-47-18 1-26 9-28 27l-52-2c7-38 36-58 82-57s74 22 75 68l1 82c-1 14 12 18 25 15v27c-30 8-71 5-69-32zm-48 3c29 0 43-24 42-57-32 0-66-3-65 30 0 17 8 27 23 27" id="s"/><path fill="#b2b2b2" d="M195-6C206 82 75 100 31 46c-4-6-6-13-8-21l49-6c3 16 16 24 34 25 40 0 42-37 40-79-11 22-30 35-61 35-53 0-70-43-70-97 0-56 18-96 73-97 30 0 46 14 59 34l2-30h47zm-90-29c32 0 41-27 41-63 0-35-9-62-40-62-32 0-39 29-40 63 0 36 9 62 39 62" id="t"/><path fill="#b2b2b2" d="M135-150c-39-12-60 13-60 57V0H25l-1-190h47c2 13-1 29 3 40 6-28 27-53 61-41v41" id="u"/><path fill="#b2b2b2" d="M220-157c-53 9-28 100-34 157h-49v-107c1-27-5-49-29-50C55-147 81-57 75 0H25l-1-190h47c2 12-1 28 3 38 10-53 101-56 108 0 13-22 24-43 59-42 82 1 51 116 57 194h-49v-107c-1-25-5-48-29-50" id="v"/><g id="b"><use transform="matrix(0.0728395061728395,0,0,0.0728395061728395,0,0)" xlink:href="#q"/><use transform="matrix(0.0728395061728395,0,0,0.0728395061728395,15.95185185185185,0)" xlink:href="#r"/><use transform="matrix(0.0728395061728395,0,0,0.0728395061728395,23.235802469135802,0)" xlink:href="#s"/><use transform="matrix(0.0728395061728395,0,0,0.0728395061728395,37.803703703703704,0)" xlink:href="#t"/><use transform="matrix(0.0728395061728395,0,0,0.0728395061728395,53.75555555555555,0)" xlink:href="#u"/><use transform="matrix(0.0728395061728395,0,0,0.0728395061728395,63.953086419753085,0)" xlink:href="#s"/><use transform="matrix(0.0728395061728395,0,0,0.0728395061728395,78.52098765432099,0)" xlink:href="#v"/></g><path fill="#b2b2b2" d="M110-194c64 0 96 36 96 99 0 64-35 99-97 99-61 0-95-36-95-99 0-62 34-99 96-99zm-1 164c35 0 45-28 45-65 0-40-10-65-43-65-34 0-45 26-45 65 0 36 10 65 43 65" id="w"/><path fill="#b2b2b2" d="M121-226c-27-7-43 5-38 36h38v33H83V0H34v-157H6v-33h28c-9-59 32-81 87-68v32" id="x"/><g id="c"><use transform="matrix(0.0728395061728395,0,0,0.0728395061728395,0,0)" xlink:href="#w"/><use transform="matrix(0.0728395061728395,0,0,0.0728395061728395,15.95185185185185,0)" xlink:href="#x"/></g><path fill="#b2b2b2" d="M115-3C79 11 28 4 28-45v-112H4v-33h27l15-45h31v45h36v33H77v99c-1 23 16 31 38 25v30" id="y"/><path fill="#b2b2b2" d="M114-157C55-157 80-60 75 0H25v-261h50l-1 109c12-26 28-41 61-42 86-1 58 113 63 194h-50c-7-57 23-157-34-157" id="z"/><path fill="#b2b2b2" d="M185-48c-13 30-37 53-82 52C43 2 14-33 14-96s30-98 90-98c62 0 83 45 84 108H66c0 31 8 55 39 56 18 0 30-7 34-22zm-45-69c5-46-57-63-70-21-2 6-4 13-4 21h74" id="A"/><g id="d"><use transform="matrix(0.0728395061728395,0,0,0.0728395061728395,0,0)" xlink:href="#y"/><use transform="matrix(0.0728395061728395,0,0,0.0728395061728395,8.667901234567902,0)" xlink:href="#z"/><use transform="matrix(0.0728395061728395,0,0,0.0728395061728395,24.619753086419752,0)" xlink:href="#A"/></g><path fill="#b2b2b2" d="M137-138c1-29-70-34-71-4 15 46 118 7 119 86 1 83-164 76-172 9l43-7c4 19 20 25 44 25 33 8 57-30 24-41C81-84 22-81 20-136c-2-80 154-74 161-7" id="B"/><path fill="#b2b2b2" d="M84 4C32 4 15-41 15-95c0-55 18-99 73-99 29 0 47 12 58 34l2-30h48l-1 265h-49V-32C136-9 114 4 84 4zm21-34c32 0 41-29 41-66 0-36-9-64-40-64-33 0-39 30-40 65 0 43 13 65 39 65" id="C"/><path fill="#b2b2b2" d="M85 4C-2 5 27-109 22-190h50c7 57-23 150 33 157 60-5 35-97 40-157h50l1 190h-47c-2-12 1-28-3-38-12 25-28 42-61 42" id="D"/><path fill="#b2b2b2" d="M135-194c87-1 58 113 63 194h-50c-7-57 23-157-34-157-59 0-34 97-39 157H25l-1-190h47c2 12-1 28 3 38 12-26 28-41 61-42" id="E"/><path fill="#b2b2b2" d="M190-63c-7 42-38 67-86 67-59 0-84-38-90-98-12-110 154-137 174-36l-49 2c-2-19-15-32-35-32-30 0-35 28-38 64-6 74 65 87 74 30" id="F"/><g id="e"><use transform="matrix(0.0728395061728395,0,0,0.0728395061728395,0,0)" xlink:href="#B"/><use transform="matrix(0.0728395061728395,0,0,0.0728395061728395,14.5679012345679,0)" xlink:href="#A"/><use transform="matrix(0.0728395061728395,0,0,0.0728395061728395,29.1358024691358,0)" xlink:href="#C"/><use transform="matrix(0.0728395061728395,0,0,0.0728395061728395,45.08765432098765,0)" xlink:href="#D"/><use transform="matrix(0.0728395061728395,0,0,0.0728395061728395,61.0395061728395,0)" xlink:href="#A"/><use transform="matrix(0.0728395061728395,0,0,0.0728395061728395,75.60740740740741,0)" xlink:href="#E"/><use transform="matrix(0.0728395061728395,0,0,0.0728395061728395,91.55925925925926,0)" xlink:href="#F"/><use transform="matrix(0.0728395061728395,0,0,0.0728395061728395,106.12716049382716,0)" xlink:href="#A"/></g><g id="f"><use transform="matrix(0.0728395061728395,0,0,0.0728395061728395,0,0)" xlink:href="#r"/><use transform="matrix(0.0728395061728395,0,0,0.0728395061728395,7.28395061728395,0)" xlink:href="#E"/></g><path fill="#b2b2b2" d="M128 0H69L1-190h53L99-40l48-150h52" id="G"/><path fill="#b2b2b2" d="M25 0v-261h50V0H25" id="H"/><path fill="#b2b2b2" d="M123 10C108 53 80 86 19 72V37c35 8 53-11 59-39L3-190h52l48 148c12-52 28-100 44-148h51" id="I"/><g id="g"><use transform="matrix(0.0728395061728395,0,0,0.0728395061728395,0,0)" xlink:href="#p"/><use transform="matrix(0.0728395061728395,0,0,0.0728395061728395,15.95185185185185,0)" xlink:href="#s"/><use transform="matrix(0.0728395061728395,0,0,0.0728395061728395,30.51975308641975,0)" xlink:href="#u"/><use transform="matrix(0.0728395061728395,0,0,0.0728395061728395,40.717283950617286,0)" xlink:href="#s"/><use transform="matrix(0.0728395061728395,0,0,0.0728395061728395,55.28518518518518,0)" xlink:href="#G"/><use transform="matrix(0.0728395061728395,0,0,0.0728395061728395,69.85308641975308,0)" xlink:href="#A"/><use transform="matrix(0.0728395061728395,0,0,0.0728395061728395,84.42098765432098,0)" xlink:href="#H"/><use transform="matrix(0.0728395061728395,0,0,0.0728395061728395,91.70493827160493,0)" xlink:href="#s"/><use transform="matrix(0.0728395061728395,0,0,0.0728395061728395,106.27283950617282,0)" xlink:href="#I"/><use transform="matrix(0.0728395061728395,0,0,0.0728395061728395,120.84074074074073,0)" xlink:href="#A"/><use transform="matrix(0.0728395061728395,0,0,0.0728395061728395,135.40864197530863,0)" xlink:href="#u"/><use transform="matrix(0.0728395061728395,0,0,0.0728395061728395,145.60617283950614,0)" xlink:href="#B"/></g><path fill="#494949" d="M212-179c-10-28-35-45-73-45-59 0-87 40-87 99 0 60 29 101 89 101 43 0 62-24 78-52l27 14C228-24 195 4 139 4 59 4 22-46 18-125c-6-104 99-153 187-111 19 9 31 26 39 46" id="J"/><path fill="#494949" d="M100-194c62-1 85 37 85 99 1 63-27 99-86 99S16-35 15-95c0-66 28-99 85-99zM99-20c44 1 53-31 53-75 0-43-8-75-51-75s-53 32-53 75 10 74 51 75" id="K"/><path fill="#494949" d="M117-194c89-4 53 116 60 194h-32v-121c0-31-8-49-39-48C34-167 62-67 57 0H25l-1-190h30c1 10-1 24 2 32 11-22 29-35 61-36" id="L"/><path fill="#494949" d="M59-47c-2 24 18 29 38 22v24C64 9 27 4 27-40v-127H5v-23h24l9-43h21v43h35v23H59v120" id="M"/><path fill="#494949" d="M114-163C36-179 61-72 57 0H25l-1-190h30c1 12-1 29 2 39 6-27 23-49 58-41v29" id="N"/><path fill="#494949" d="M24 0v-261h32V0H24" id="O"/><path fill="#494949" d="M100-194c63 0 86 42 84 106H49c0 40 14 67 53 68 26 1 43-12 49-29l28 8c-11 28-37 45-77 45C44 4 14-33 15-96c1-61 26-98 85-98zm52 81c6-60-76-77-97-28-3 7-6 17-6 28h103" id="P"/><g id="h"><use transform="matrix(0.05,0,0,0.05,0,0)" xlink:href="#J"/><use transform="matrix(0.05,0,0,0.05,12.950000000000001,0)" xlink:href="#K"/><use transform="matrix(0.05,0,0,0.05,22.950000000000003,0)" xlink:href="#L"/><use transform="matrix(0.05,0,0,0.05,32.95,0)" xlink:href="#M"/><use transform="matrix(0.05,0,0,0.05,37.95,0)" xlink:href="#N"/><use transform="matrix(0.05,0,0,0.05,43.900000000000006,0)" xlink:href="#K"/><use transform="matrix(0.05,0,0,0.05,53.900000000000006,0)" xlink:href="#O"/><use transform="matrix(0.05,0,0,0.05,57.85,0)" xlink:href="#O"/><use transform="matrix(0.05,0,0,0.05,61.80000000000001,0)" xlink:href="#P"/><use transform="matrix(0.05,0,0,0.05,71.80000000000001,0)" xlink:href="#N"/></g><path fill="#494949" d="M185-189c-5-48-123-54-124 2 14 75 158 14 163 119 3 78-121 87-175 55-17-10-28-26-33-46l33-7c5 56 141 63 141-1 0-78-155-14-162-118-5-82 145-84 179-34 5 7 8 16 11 25" id="Q"/><path fill="#494949" d="M108 0H70L1-190h34L89-25l56-165h34" id="R"/><path fill="#494949" d="M24-231v-30h32v30H24zM24 0v-190h32V0H24" id="S"/><path fill="#494949" d="M96-169c-40 0-48 33-48 73s9 75 48 75c24 0 41-14 43-38l32 2c-6 37-31 61-74 61-59 0-76-41-82-99-10-93 101-131 147-64 4 7 5 14 7 22l-32 3c-4-21-16-35-41-35" id="T"/><g id="i"><use transform="matrix(0.05,0,0,0.05,0,0)" xlink:href="#Q"/><use transform="matrix(0.05,0,0,0.05,12,0)" xlink:href="#P"/><use transform="matrix(0.05,0,0,0.05,22,0)" xlink:href="#N"/><use transform="matrix(0.05,0,0,0.05,27.950000000000003,0)" xlink:href="#R"/><use transform="matrix(0.05,0,0,0.05,36.95,0)" xlink:href="#S"/><use transform="matrix(0.05,0,0,0.05,40.900000000000006,0)" xlink:href="#T"/><use transform="matrix(0.05,0,0,0.05,49.900000000000006,0)" xlink:href="#P"/></g><path fill="#494949" d="M233-177c-1 41-23 64-60 70L243 0h-38l-65-103H63V0H30v-248c88 3 205-21 203 71zM63-129c60-2 137 13 137-47 0-61-80-42-137-45v92" id="U"/><path fill="#494949" d="M115-194c55 1 70 41 70 98S169 2 115 4C84 4 66-9 55-30l1 105H24l-1-265h31l2 30c10-21 28-34 59-34zm-8 174c40 0 45-34 45-75s-6-73-45-74c-42 0-51 32-51 76 0 43 10 73 51 73" id="V"/><path fill="#494949" d="M135-143c-3-34-86-38-87 0 15 53 115 12 119 90S17 21 10-45l28-5c4 36 97 45 98 0-10-56-113-15-118-90-4-57 82-63 122-42 12 7 21 19 24 35" id="W"/><path fill="#494949" d="M179-190L93 31C79 59 56 82 12 73V49c39 6 53-20 64-50L1-190h34L92-34l54-156h33" id="X"/><g id="j"><use transform="matrix(0.05,0,0,0.05,0,0)" xlink:href="#U"/><use transform="matrix(0.05,0,0,0.05,12.950000000000001,0)" xlink:href="#P"/><use transform="matrix(0.05,0,0,0.05,22.950000000000003,0)" xlink:href="#V"/><use transform="matrix(0.05,0,0,0.05,32.95,0)" xlink:href="#K"/><use transform="matrix(0.05,0,0,0.05,42.95,0)" xlink:href="#W"/><use transform="matrix(0.05,0,0,0.05,51.95,0)" xlink:href="#S"/><use transform="matrix(0.05,0,0,0.05,55.900000000000006,0)" xlink:href="#M"/><use transform="matrix(0.05,0,0,0.05,60.900000000000006,0)" xlink:href="#K"/><use transform="matrix(0.05,0,0,0.05,70.9,0)" xlink:href="#N"/><use transform="matrix(0.05,0,0,0.05,76.85000000000001,0)" xlink:href="#X"/></g><path fill="#494949" d="M30-248c118-7 216 8 213 122C240-48 200 0 122 0H30v-248zM63-27c89 8 146-16 146-99s-60-101-146-95v194" id="Y"/><g id="k"><use transform="matrix(0.05,0,0,0.05,0,0)" xlink:href="#Y"/><use transform="matrix(0.05,0,0,0.05,12.950000000000001,0)" xlink:href="#M"/><use transform="matrix(0.05,0,0,0.05,17.950000000000003,0)" xlink:href="#K"/></g><path fill="#494949" d="M141-36C126-15 110 5 73 4 37 3 15-17 15-53c-1-64 63-63 125-63 3-35-9-54-41-54-24 1-41 7-42 31l-33-3c5-37 33-52 76-52 45 0 72 20 72 64v82c-1 20 7 32 28 27v20c-31 9-61-2-59-35zM48-53c0 20 12 33 32 33 41-3 63-29 60-74-43 2-92-5-92 41" id="Z"/><g id="l"><use transform="matrix(0.05,0,0,0.05,0,0)" xlink:href="#Y"/><use transform="matrix(0.05,0,0,0.05,12.950000000000001,0)" xlink:href="#P"/><use transform="matrix(0.05,0,0,0.05,22.950000000000003,0)" xlink:href="#T"/><use transform="matrix(0.05,0,0,0.05,31.950000000000003,0)" xlink:href="#K"/><use transform="matrix(0.05,0,0,0.05,41.95,0)" xlink:href="#N"/><use transform="matrix(0.05,0,0,0.05,47.900000000000006,0)" xlink:href="#Z"/><use transform="matrix(0.05,0,0,0.05,57.900000000000006,0)" xlink:href="#M"/><use transform="matrix(0.05,0,0,0.05,62.900000000000006,0)" xlink:href="#K"/><use transform="matrix(0.05,0,0,0.05,72.9,0)" xlink:href="#N"/></g><path fill="#494949" d="M240 0l2-218c-23 76-54 145-80 218h-23L58-218 59 0H30v-248h44l77 211c21-75 51-140 76-211h43V0h-30" id="aa"/><path fill="#494949" d="M85-194c31 0 48 13 60 33l-1-100h32l1 261h-30c-2-10 0-23-3-31C134-8 116 4 85 4 32 4 16-35 15-94c0-66 23-100 70-100zm9 24c-40 0-46 34-46 75 0 40 6 74 45 74 42 0 51-32 51-76 0-42-9-74-50-73" id="ab"/><g id="m"><use transform="matrix(0.05,0,0,0.05,0,0)" xlink:href="#aa"/><use transform="matrix(0.05,0,0,0.05,14.950000000000001,0)" xlink:href="#K"/><use transform="matrix(0.05,0,0,0.05,24.950000000000003,0)" xlink:href="#ab"/><use transform="matrix(0.05,0,0,0.05,34.95,0)" xlink:href="#P"/><use transform="matrix(0.05,0,0,0.05,44.95,0)" xlink:href="#O"/></g></defs></g></svg>